<?xml version="1.0" encoding="utf-8"?>
<svg viewBox="0 0 64 64" xmlns="http://www.w3.org/2000/svg">
  <g >
    <path d="M13.372,38.3c-4.087-6.051-7.6-12.6-7.6-17.24a20.064,20.064,0,0,1,40.127,0c0,4.635-3.51,11.182-7.594,17.231" fill="#009fe3" stroke="#29235c" stroke-linecap="round" stroke-miterlimit="10" stroke-width="2"/>
    <path d="M33.394,20.706c0,3.046-4.027,8.286-6.2,10.9a1.763,1.763,0,0,1-2.713,0c-2.176-2.609-6.2-7.849-6.2-10.895a7.559,7.559,0,1,1,15.117,0Z" fill="#fff" stroke="#29235c" stroke-linecap="round" stroke-miterlimit="10" stroke-width="2"/>
    <path d="M50.671,38.311c-3.1,0-3.1-4.32-6.206-4.32s-3.1,4.32-6.207,4.32-3.1-4.32-6.206-4.32-3.1,4.32-6.208,4.32-3.1-4.32-6.205-4.32-3.105,4.32-6.21,4.32-3.107-4.32-6.215-4.32S4.107,38.311,1,38.311" fill="#fff" stroke="#29235c" stroke-linecap="round" stroke-miterlimit="10" stroke-width="2"/>
    <path d="M50.671,44.994c-3.1,0-3.1-4.32-6.206-4.32s-3.1,4.32-6.207,4.32-3.1-4.32-6.206-4.32-3.1,4.32-6.208,4.32-3.1-4.32-6.205-4.32-3.105,4.32-6.21,4.32-3.107-4.32-6.215-4.32S4.107,44.994,1,44.994" fill="#fff" stroke="#29235c" stroke-linecap="round" stroke-miterlimit="10" stroke-width="2"/>
  </g>
</svg>